<mxfile host="app.diagrams.net" modified="2021-05-27T08:28:01.164Z" agent="5.0 (Windows NT 10.0; Win64; x64) AppleWebKit/537.36 (KHTML, like Gecko) Chrome/90.0.4430.212 Safari/537.36 Edg/90.0.818.66" etag="vLSOfj4WHgk10TiYBTQ-" version="14.7.1" type="github" pages="2">
  <diagram id="W5WCuhoOwF-zo8wow_NF" name="Page-1">
    <mxGraphModel dx="820" dy="450" grid="1" gridSize="10" guides="1" tooltips="1" connect="1" arrows="1" fold="1" page="1" pageScale="1" pageWidth="827" pageHeight="1169" math="0" shadow="0">
      <root>
        <mxCell id="0" />
        <mxCell id="1" parent="0" />
        <mxCell id="LwRIfwEhjU_-6vlbZYRO-4" value="" style="endArrow=none;dashed=1;html=1;dashPattern=1 3;strokeWidth=2;" parent="1" edge="1">
          <mxGeometry width="50" height="50" relative="1" as="geometry">
            <mxPoint x="160" y="470" as="sourcePoint" />
            <mxPoint x="160" y="450" as="targetPoint" />
          </mxGeometry>
        </mxCell>
        <mxCell id="LwRIfwEhjU_-6vlbZYRO-9" value="proxy server" style="verticalLabelPosition=bottom;aspect=fixed;html=1;verticalAlign=top;strokeColor=none;align=center;outlineConnect=0;shape=mxgraph.citrix.proxy_server;fontSize=15;" parent="1" vertex="1">
          <mxGeometry x="250" y="360" width="76.5" height="90" as="geometry" />
        </mxCell>
        <mxCell id="LwRIfwEhjU_-6vlbZYRO-11" value="server1" style="image;html=1;image=img/lib/clip_art/computers/Server_128x128.png;fontSize=15;" parent="1" vertex="1">
          <mxGeometry x="398.5" y="260" width="67.5" height="60" as="geometry" />
        </mxCell>
        <mxCell id="LwRIfwEhjU_-6vlbZYRO-12" value="server2" style="image;html=1;image=img/lib/clip_art/computers/Server_128x128.png;fontSize=15;" parent="1" vertex="1">
          <mxGeometry x="397.5" y="360" width="65" height="70" as="geometry" />
        </mxCell>
        <mxCell id="LwRIfwEhjU_-6vlbZYRO-13" value="serverN" style="image;html=1;image=img/lib/clip_art/computers/Server_128x128.png;fontSize=15;" parent="1" vertex="1">
          <mxGeometry x="397.5" y="489" width="65" height="58" as="geometry" />
        </mxCell>
        <mxCell id="LwRIfwEhjU_-6vlbZYRO-14" value="" style="endArrow=none;dashed=1;html=1;dashPattern=1 3;strokeWidth=2;" parent="1" edge="1">
          <mxGeometry width="50" height="50" relative="1" as="geometry">
            <mxPoint x="430" y="476" as="sourcePoint" />
            <mxPoint x="430" y="456" as="targetPoint" />
          </mxGeometry>
        </mxCell>
        <mxCell id="LwRIfwEhjU_-6vlbZYRO-15" value="user1" style="points=[[0.13,0.225,0],[0.5,0,0],[0.87,0.225,0],[0.885,0.5,0],[0.985,0.99,0],[0.5,1,0],[0.015,0.99,0],[0.115,0.5,0]];verticalLabelPosition=bottom;html=1;verticalAlign=top;aspect=fixed;align=center;pointerEvents=1;shape=mxgraph.cisco19.laptop_video_client;fillColor=#005073;strokeColor=none;fontSize=15;" parent="1" vertex="1">
          <mxGeometry x="129" y="260" width="60" height="51" as="geometry" />
        </mxCell>
        <mxCell id="LwRIfwEhjU_-6vlbZYRO-17" value="userN" style="outlineConnect=0;dashed=0;verticalLabelPosition=bottom;verticalAlign=top;align=center;html=1;shape=mxgraph.aws3.management_console;fillColor=#D2D3D3;gradientColor=none;fontSize=15;" parent="1" vertex="1">
          <mxGeometry x="129" y="489" width="63" height="63" as="geometry" />
        </mxCell>
        <mxCell id="LwRIfwEhjU_-6vlbZYRO-18" value="user2" style="points=[[0.35,0,0],[0.98,0.51,0],[1,0.71,0],[0.67,1,0],[0,0.795,0],[0,0.65,0]];verticalLabelPosition=bottom;html=1;verticalAlign=top;aspect=fixed;align=center;pointerEvents=1;shape=mxgraph.cisco19.user;fillColor=#005073;strokeColor=none;fontSize=15;" parent="1" vertex="1">
          <mxGeometry x="129" y="360" width="60" height="60" as="geometry" />
        </mxCell>
        <mxCell id="LwRIfwEhjU_-6vlbZYRO-19" value="" style="endArrow=classic;startArrow=classic;html=1;fontSize=15;exitX=1.067;exitY=0.647;exitDx=0;exitDy=0;exitPerimeter=0;" parent="1" source="LwRIfwEhjU_-6vlbZYRO-15" target="LwRIfwEhjU_-6vlbZYRO-9" edge="1">
          <mxGeometry width="50" height="50" relative="1" as="geometry">
            <mxPoint x="220" y="311" as="sourcePoint" />
            <mxPoint x="270" y="261" as="targetPoint" />
          </mxGeometry>
        </mxCell>
        <mxCell id="LwRIfwEhjU_-6vlbZYRO-20" value="" style="endArrow=classic;startArrow=classic;html=1;fontSize=15;exitX=1.067;exitY=0.647;exitDx=0;exitDy=0;exitPerimeter=0;" parent="1" edge="1">
          <mxGeometry width="50" height="50" relative="1" as="geometry">
            <mxPoint x="191.99999999999997" y="399.99699999999996" as="sourcePoint" />
            <mxPoint x="249" y="400" as="targetPoint" />
          </mxGeometry>
        </mxCell>
        <mxCell id="LwRIfwEhjU_-6vlbZYRO-21" value="" style="endArrow=classic;startArrow=classic;html=1;fontSize=15;" parent="1" target="LwRIfwEhjU_-6vlbZYRO-9" edge="1">
          <mxGeometry width="50" height="50" relative="1" as="geometry">
            <mxPoint x="200" y="520" as="sourcePoint" />
            <mxPoint x="287" y="510" as="targetPoint" />
          </mxGeometry>
        </mxCell>
        <mxCell id="LwRIfwEhjU_-6vlbZYRO-22" value="" style="endArrow=classic;startArrow=classic;html=1;fontSize=15;" parent="1" source="LwRIfwEhjU_-6vlbZYRO-9" edge="1">
          <mxGeometry width="50" height="50" relative="1" as="geometry">
            <mxPoint x="290" y="539.997" as="sourcePoint" />
            <mxPoint x="400" y="310" as="targetPoint" />
          </mxGeometry>
        </mxCell>
        <mxCell id="LwRIfwEhjU_-6vlbZYRO-23" value="" style="endArrow=classic;startArrow=classic;html=1;fontSize=15;" parent="1" source="LwRIfwEhjU_-6vlbZYRO-12" target="LwRIfwEhjU_-6vlbZYRO-9" edge="1">
          <mxGeometry width="50" height="50" relative="1" as="geometry">
            <mxPoint x="222" y="429.99699999999996" as="sourcePoint" />
            <mxPoint x="279" y="430" as="targetPoint" />
          </mxGeometry>
        </mxCell>
        <mxCell id="LwRIfwEhjU_-6vlbZYRO-24" value="" style="endArrow=classic;startArrow=classic;html=1;fontSize=15;exitX=0;exitY=0.5;exitDx=0;exitDy=0;" parent="1" source="LwRIfwEhjU_-6vlbZYRO-13" target="LwRIfwEhjU_-6vlbZYRO-9" edge="1">
          <mxGeometry width="50" height="50" relative="1" as="geometry">
            <mxPoint x="371" y="546.9927689594356" as="sourcePoint" />
            <mxPoint x="300" y="552.0015873015873" as="targetPoint" />
          </mxGeometry>
        </mxCell>
      </root>
    </mxGraphModel>
  </diagram>
  <diagram id="OC-D9NKtNdKCuH-kdqZ6" name="Page-2">
    <mxGraphModel dx="1171" dy="643" grid="1" gridSize="10" guides="1" tooltips="1" connect="1" arrows="1" fold="1" page="1" pageScale="1" pageWidth="827" pageHeight="1169" math="0" shadow="0">
      <root>
        <mxCell id="dNC3qKNQeRgzjOXp19lq-0" />
        <mxCell id="dNC3qKNQeRgzjOXp19lq-1" parent="dNC3qKNQeRgzjOXp19lq-0" />
        <mxCell id="dNC3qKNQeRgzjOXp19lq-10" value="" style="rounded=0;whiteSpace=wrap;html=1;fontSize=15;dashed=1;" parent="dNC3qKNQeRgzjOXp19lq-1" vertex="1">
          <mxGeometry x="130" y="140" width="600" height="530" as="geometry" />
        </mxCell>
        <mxCell id="VGD7acbD25_1UuSdrELz-32" value="&lt;div style=&quot;text-align: justify&quot;&gt;&lt;/div&gt;" style="rounded=0;whiteSpace=wrap;html=1;shadow=0;glass=0;dashed=1;sketch=0;gradientColor=none;fillColor=#FFFFFF;" vertex="1" parent="dNC3qKNQeRgzjOXp19lq-1">
          <mxGeometry x="150" y="181.37" width="440" height="97.25" as="geometry" />
        </mxCell>
        <mxCell id="VGD7acbD25_1UuSdrELz-25" value="&lt;div style=&quot;text-align: justify&quot;&gt;&lt;/div&gt;" style="rounded=0;whiteSpace=wrap;html=1;shadow=0;glass=0;dashed=1;sketch=0;gradientColor=none;fillColor=#FFFFFF;" vertex="1" parent="dNC3qKNQeRgzjOXp19lq-1">
          <mxGeometry x="612" y="160" width="105" height="490" as="geometry" />
        </mxCell>
        <mxCell id="dNC3qKNQeRgzjOXp19lq-2" value="http协议解析" style="rounded=1;whiteSpace=wrap;html=1;fontSize=15;" parent="dNC3qKNQeRgzjOXp19lq-1" vertex="1">
          <mxGeometry x="230" y="189.99" width="40" height="80" as="geometry" />
        </mxCell>
        <mxCell id="dNC3qKNQeRgzjOXp19lq-3" value="http响应封装" style="rounded=1;whiteSpace=wrap;html=1;fontSize=15;" parent="dNC3qKNQeRgzjOXp19lq-1" vertex="1">
          <mxGeometry x="290" y="189.99" width="40" height="80" as="geometry" />
        </mxCell>
        <mxCell id="dNC3qKNQeRgzjOXp19lq-4" value="ws协议解析" style="rounded=1;whiteSpace=wrap;html=1;fontSize=15;" parent="dNC3qKNQeRgzjOXp19lq-1" vertex="1">
          <mxGeometry x="410" y="189.99" width="40" height="80" as="geometry" />
        </mxCell>
        <mxCell id="dNC3qKNQeRgzjOXp19lq-5" value="ws处理器" style="rounded=1;whiteSpace=wrap;html=1;fontSize=15;" parent="dNC3qKNQeRgzjOXp19lq-1" vertex="1">
          <mxGeometry x="470" y="189.99" width="40" height="80" as="geometry" />
        </mxCell>
        <mxCell id="dNC3qKNQeRgzjOXp19lq-6" value="会话管理器" style="rounded=1;whiteSpace=wrap;html=1;fontSize=15;" parent="dNC3qKNQeRgzjOXp19lq-1" vertex="1">
          <mxGeometry x="530" y="189.99" width="40" height="80" as="geometry" />
        </mxCell>
        <mxCell id="dNC3qKNQeRgzjOXp19lq-8" value="用户" style="rounded=1;whiteSpace=wrap;html=1;fontSize=15;shadow=0;sketch=0;glass=0;" parent="dNC3qKNQeRgzjOXp19lq-1" vertex="1">
          <mxGeometry x="20" y="212.49" width="70" height="41" as="geometry" />
        </mxCell>
        <mxCell id="VGD7acbD25_1UuSdrELz-0" value="心跳检测" style="rounded=1;whiteSpace=wrap;html=1;fontSize=15;" vertex="1" parent="dNC3qKNQeRgzjOXp19lq-1">
          <mxGeometry x="350" y="189.99" width="40" height="80" as="geometry" />
        </mxCell>
        <mxCell id="VGD7acbD25_1UuSdrELz-4" value="用户" style="rounded=1;whiteSpace=wrap;html=1;fontSize=15;shadow=0;sketch=0;glass=0;" vertex="1" parent="dNC3qKNQeRgzjOXp19lq-1">
          <mxGeometry x="20" y="329.5" width="70" height="41" as="geometry" />
        </mxCell>
        <mxCell id="VGD7acbD25_1UuSdrELz-5" value="用户" style="rounded=1;whiteSpace=wrap;html=1;fontSize=15;shadow=0;sketch=0;glass=0;" vertex="1" parent="dNC3qKNQeRgzjOXp19lq-1">
          <mxGeometry x="20" y="446.88" width="70" height="39" as="geometry" />
        </mxCell>
        <mxCell id="VGD7acbD25_1UuSdrELz-6" value="用户" style="rounded=1;whiteSpace=wrap;html=1;fontSize=15;shadow=0;sketch=0;glass=0;" vertex="1" parent="dNC3qKNQeRgzjOXp19lq-1">
          <mxGeometry x="20" y="575.01" width="70" height="43.5" as="geometry" />
        </mxCell>
        <mxCell id="VGD7acbD25_1UuSdrELz-7" value="" style="endArrow=classic;startArrow=classic;html=1;exitX=1;exitY=0.5;exitDx=0;exitDy=0;" edge="1" parent="dNC3qKNQeRgzjOXp19lq-1" source="dNC3qKNQeRgzjOXp19lq-8">
          <mxGeometry width="50" height="50" relative="1" as="geometry">
            <mxPoint x="50" y="637.24" as="sourcePoint" />
            <mxPoint x="150" y="232.99" as="targetPoint" />
          </mxGeometry>
        </mxCell>
        <mxCell id="VGD7acbD25_1UuSdrELz-8" value="" style="endArrow=classic;startArrow=classic;html=1;exitX=1;exitY=0.49;exitDx=0;exitDy=0;exitPerimeter=0;entryX=0;entryY=0.5;entryDx=0;entryDy=0;" edge="1" parent="dNC3qKNQeRgzjOXp19lq-1" source="VGD7acbD25_1UuSdrELz-4" target="VGD7acbD25_1UuSdrELz-36">
          <mxGeometry width="50" height="50" relative="1" as="geometry">
            <mxPoint x="131" y="347.65999999999997" as="sourcePoint" />
            <mxPoint x="140" y="347.25" as="targetPoint" />
          </mxGeometry>
        </mxCell>
        <mxCell id="VGD7acbD25_1UuSdrELz-9" value="" style="endArrow=classic;startArrow=classic;html=1;exitX=1;exitY=0.5;exitDx=0;exitDy=0;entryX=0;entryY=0.5;entryDx=0;entryDy=0;" edge="1" parent="dNC3qKNQeRgzjOXp19lq-1" source="VGD7acbD25_1UuSdrELz-5" target="VGD7acbD25_1UuSdrELz-44">
          <mxGeometry width="50" height="50" relative="1" as="geometry">
            <mxPoint x="130" y="462.63" as="sourcePoint" />
            <mxPoint x="140" y="462.63" as="targetPoint" />
          </mxGeometry>
        </mxCell>
        <mxCell id="VGD7acbD25_1UuSdrELz-10" value="" style="endArrow=classic;startArrow=classic;html=1;exitX=1;exitY=0.5;exitDx=0;exitDy=0;entryX=0;entryY=0.5;entryDx=0;entryDy=0;" edge="1" parent="dNC3qKNQeRgzjOXp19lq-1" source="VGD7acbD25_1UuSdrELz-6" target="VGD7acbD25_1UuSdrELz-52">
          <mxGeometry width="50" height="50" relative="1" as="geometry">
            <mxPoint x="120" y="587.51" as="sourcePoint" />
            <mxPoint x="140" y="564.295714285714" as="targetPoint" />
          </mxGeometry>
        </mxCell>
        <mxCell id="VGD7acbD25_1UuSdrELz-13" value="server" style="rounded=1;whiteSpace=wrap;html=1;fontSize=15;shadow=0;sketch=0;glass=0;" vertex="1" parent="dNC3qKNQeRgzjOXp19lq-1">
          <mxGeometry x="750" y="210.62" width="70" height="52.75" as="geometry" />
        </mxCell>
        <mxCell id="VGD7acbD25_1UuSdrELz-14" value="server" style="rounded=1;whiteSpace=wrap;html=1;fontSize=15;shadow=0;sketch=0;glass=0;" vertex="1" parent="dNC3qKNQeRgzjOXp19lq-1">
          <mxGeometry x="750" y="323.62" width="70" height="52.75" as="geometry" />
        </mxCell>
        <mxCell id="VGD7acbD25_1UuSdrELz-15" value="server" style="rounded=1;whiteSpace=wrap;html=1;fontSize=15;shadow=0;sketch=0;glass=0;" vertex="1" parent="dNC3qKNQeRgzjOXp19lq-1">
          <mxGeometry x="750" y="443.63" width="70" height="52.75" as="geometry" />
        </mxCell>
        <mxCell id="VGD7acbD25_1UuSdrELz-16" value="server" style="rounded=1;whiteSpace=wrap;html=1;fontSize=15;shadow=0;sketch=0;glass=0;" vertex="1" parent="dNC3qKNQeRgzjOXp19lq-1">
          <mxGeometry x="750" y="573.63" width="70" height="47.25" as="geometry" />
        </mxCell>
        <mxCell id="VGD7acbD25_1UuSdrELz-17" value="" style="endArrow=none;dashed=1;html=1;dashPattern=1 3;strokeWidth=2;" edge="1" parent="dNC3qKNQeRgzjOXp19lq-1">
          <mxGeometry width="50" height="50" relative="1" as="geometry">
            <mxPoint x="57" y="523.63" as="sourcePoint" />
            <mxPoint x="57" y="503.63" as="targetPoint" />
          </mxGeometry>
        </mxCell>
        <mxCell id="VGD7acbD25_1UuSdrELz-19" value="" style="endArrow=none;dashed=1;html=1;dashPattern=1 3;strokeWidth=2;" edge="1" parent="dNC3qKNQeRgzjOXp19lq-1">
          <mxGeometry width="50" height="50" relative="1" as="geometry">
            <mxPoint x="785" y="550" as="sourcePoint" />
            <mxPoint x="785" y="530" as="targetPoint" />
          </mxGeometry>
        </mxCell>
        <mxCell id="VGD7acbD25_1UuSdrELz-27" value="" style="ndArrow=classic;startArrow=classic;edgeStyle=orthogonalEdgeStyle;rounded=0;orthogonalLoop=1;jettySize=auto;html=1;sketch=0;exitX=1;exitY=0.5;exitDx=0;exitDy=0;" edge="1" parent="dNC3qKNQeRgzjOXp19lq-1" source="VGD7acbD25_1UuSdrELz-20" target="VGD7acbD25_1UuSdrELz-13">
          <mxGeometry relative="1" as="geometry">
            <mxPoint x="670" y="230.25" as="sourcePoint" />
          </mxGeometry>
        </mxCell>
        <mxCell id="VGD7acbD25_1UuSdrELz-20" value="ssh监听线程" style="rounded=1;whiteSpace=wrap;html=1;fontSize=15;shadow=0;sketch=0;glass=0;" vertex="1" parent="dNC3qKNQeRgzjOXp19lq-1">
          <mxGeometry x="622" y="208" width="90" height="60" as="geometry" />
        </mxCell>
        <mxCell id="VGD7acbD25_1UuSdrELz-28" value="" style="ndArrow=classic;startArrow=classic;edgeStyle=orthogonalEdgeStyle;rounded=0;orthogonalLoop=1;jettySize=auto;html=1;exitX=1;exitY=0.5;exitDx=0;exitDy=0;" edge="1" parent="dNC3qKNQeRgzjOXp19lq-1" source="VGD7acbD25_1UuSdrELz-21" target="VGD7acbD25_1UuSdrELz-14">
          <mxGeometry relative="1" as="geometry">
            <mxPoint x="670" y="350.25" as="sourcePoint" />
          </mxGeometry>
        </mxCell>
        <mxCell id="VGD7acbD25_1UuSdrELz-21" value="ssh监听线程" style="rounded=1;whiteSpace=wrap;html=1;fontSize=15;shadow=0;sketch=0;glass=0;" vertex="1" parent="dNC3qKNQeRgzjOXp19lq-1">
          <mxGeometry x="622" y="320" width="90" height="60" as="geometry" />
        </mxCell>
        <mxCell id="VGD7acbD25_1UuSdrELz-29" value="" style="ndArrow=classic;startArrow=classic;edgeStyle=orthogonalEdgeStyle;rounded=0;orthogonalLoop=1;jettySize=auto;html=1;exitX=1;exitY=0.5;exitDx=0;exitDy=0;" edge="1" parent="dNC3qKNQeRgzjOXp19lq-1" source="VGD7acbD25_1UuSdrELz-22" target="VGD7acbD25_1UuSdrELz-15">
          <mxGeometry relative="1" as="geometry">
            <mxPoint x="670" y="470.25" as="sourcePoint" />
          </mxGeometry>
        </mxCell>
        <mxCell id="VGD7acbD25_1UuSdrELz-22" value="ssh监听线程" style="rounded=1;whiteSpace=wrap;html=1;fontSize=15;shadow=0;sketch=0;glass=0;" vertex="1" parent="dNC3qKNQeRgzjOXp19lq-1">
          <mxGeometry x="622" y="440" width="90" height="60" as="geometry" />
        </mxCell>
        <mxCell id="VGD7acbD25_1UuSdrELz-30" value="" style="ndArrow=classic;startArrow=classic;edgeStyle=orthogonalEdgeStyle;rounded=0;orthogonalLoop=1;jettySize=auto;html=1;exitX=1;exitY=0.5;exitDx=0;exitDy=0;" edge="1" parent="dNC3qKNQeRgzjOXp19lq-1" source="VGD7acbD25_1UuSdrELz-23" target="VGD7acbD25_1UuSdrELz-16">
          <mxGeometry relative="1" as="geometry">
            <mxPoint x="670" y="597" as="sourcePoint" />
          </mxGeometry>
        </mxCell>
        <mxCell id="VGD7acbD25_1UuSdrELz-23" value="ssh监听线程" style="rounded=1;whiteSpace=wrap;html=1;fontSize=15;shadow=0;sketch=0;glass=0;" vertex="1" parent="dNC3qKNQeRgzjOXp19lq-1">
          <mxGeometry x="622" y="567.25" width="90" height="60" as="geometry" />
        </mxCell>
        <mxCell id="VGD7acbD25_1UuSdrELz-24" value="" style="endArrow=none;dashed=1;html=1;dashPattern=1 3;strokeWidth=2;" edge="1" parent="dNC3qKNQeRgzjOXp19lq-1">
          <mxGeometry width="50" height="50" relative="1" as="geometry">
            <mxPoint x="667" y="550" as="sourcePoint" />
            <mxPoint x="667" y="530" as="targetPoint" />
          </mxGeometry>
        </mxCell>
        <mxCell id="VGD7acbD25_1UuSdrELz-26" value="Listener Threads" style="rounded=0;whiteSpace=wrap;html=1;shadow=0;glass=0;dashed=1;sketch=0;gradientColor=none;strokeColor=none;" vertex="1" parent="dNC3qKNQeRgzjOXp19lq-1">
          <mxGeometry x="629.5" y="170" width="70" height="30" as="geometry" />
        </mxCell>
        <mxCell id="VGD7acbD25_1UuSdrELz-31" value="日志记录" style="rounded=1;whiteSpace=wrap;html=1;fontSize=15;" vertex="1" parent="dNC3qKNQeRgzjOXp19lq-1">
          <mxGeometry x="170" y="189.99" width="40" height="80" as="geometry" />
        </mxCell>
        <mxCell id="VGD7acbD25_1UuSdrELz-36" value="&lt;div style=&quot;text-align: justify&quot;&gt;&lt;/div&gt;" style="rounded=0;whiteSpace=wrap;html=1;shadow=0;glass=0;dashed=1;sketch=0;gradientColor=none;fillColor=#FFFFFF;" vertex="1" parent="dNC3qKNQeRgzjOXp19lq-1">
          <mxGeometry x="150" y="300" width="440" height="100" as="geometry" />
        </mxCell>
        <mxCell id="VGD7acbD25_1UuSdrELz-37" value="http协议解析" style="rounded=1;whiteSpace=wrap;html=1;fontSize=15;" vertex="1" parent="dNC3qKNQeRgzjOXp19lq-1">
          <mxGeometry x="230" y="310" width="40" height="80" as="geometry" />
        </mxCell>
        <mxCell id="VGD7acbD25_1UuSdrELz-38" value="http响应封装" style="rounded=1;whiteSpace=wrap;html=1;fontSize=15;" vertex="1" parent="dNC3qKNQeRgzjOXp19lq-1">
          <mxGeometry x="290" y="310" width="40" height="80" as="geometry" />
        </mxCell>
        <mxCell id="VGD7acbD25_1UuSdrELz-39" value="ws协议解析" style="rounded=1;whiteSpace=wrap;html=1;fontSize=15;" vertex="1" parent="dNC3qKNQeRgzjOXp19lq-1">
          <mxGeometry x="410" y="310" width="40" height="80" as="geometry" />
        </mxCell>
        <mxCell id="VGD7acbD25_1UuSdrELz-40" value="ws处理器" style="rounded=1;whiteSpace=wrap;html=1;fontSize=15;" vertex="1" parent="dNC3qKNQeRgzjOXp19lq-1">
          <mxGeometry x="470" y="310" width="40" height="80" as="geometry" />
        </mxCell>
        <mxCell id="VGD7acbD25_1UuSdrELz-41" value="会话管理器" style="rounded=1;whiteSpace=wrap;html=1;fontSize=15;" vertex="1" parent="dNC3qKNQeRgzjOXp19lq-1">
          <mxGeometry x="530" y="310" width="40" height="80" as="geometry" />
        </mxCell>
        <mxCell id="VGD7acbD25_1UuSdrELz-42" value="心跳检测" style="rounded=1;whiteSpace=wrap;html=1;fontSize=15;" vertex="1" parent="dNC3qKNQeRgzjOXp19lq-1">
          <mxGeometry x="350" y="310" width="40" height="80" as="geometry" />
        </mxCell>
        <mxCell id="VGD7acbD25_1UuSdrELz-43" value="日志记录" style="rounded=1;whiteSpace=wrap;html=1;fontSize=15;" vertex="1" parent="dNC3qKNQeRgzjOXp19lq-1">
          <mxGeometry x="170" y="310" width="40" height="80" as="geometry" />
        </mxCell>
        <mxCell id="VGD7acbD25_1UuSdrELz-44" value="&lt;div style=&quot;text-align: justify&quot;&gt;&lt;/div&gt;" style="rounded=0;whiteSpace=wrap;html=1;shadow=0;glass=0;dashed=1;sketch=0;gradientColor=none;fillColor=#FFFFFF;" vertex="1" parent="dNC3qKNQeRgzjOXp19lq-1">
          <mxGeometry x="150" y="416.38" width="440" height="100" as="geometry" />
        </mxCell>
        <mxCell id="VGD7acbD25_1UuSdrELz-45" value="http协议解析" style="rounded=1;whiteSpace=wrap;html=1;fontSize=15;" vertex="1" parent="dNC3qKNQeRgzjOXp19lq-1">
          <mxGeometry x="230" y="426.38" width="40" height="80" as="geometry" />
        </mxCell>
        <mxCell id="VGD7acbD25_1UuSdrELz-46" value="http响应封装" style="rounded=1;whiteSpace=wrap;html=1;fontSize=15;" vertex="1" parent="dNC3qKNQeRgzjOXp19lq-1">
          <mxGeometry x="290" y="426.38" width="40" height="80" as="geometry" />
        </mxCell>
        <mxCell id="VGD7acbD25_1UuSdrELz-47" value="ws协议解析" style="rounded=1;whiteSpace=wrap;html=1;fontSize=15;" vertex="1" parent="dNC3qKNQeRgzjOXp19lq-1">
          <mxGeometry x="410" y="426.38" width="40" height="80" as="geometry" />
        </mxCell>
        <mxCell id="VGD7acbD25_1UuSdrELz-48" value="ws处理器" style="rounded=1;whiteSpace=wrap;html=1;fontSize=15;" vertex="1" parent="dNC3qKNQeRgzjOXp19lq-1">
          <mxGeometry x="470" y="426.38" width="40" height="80" as="geometry" />
        </mxCell>
        <mxCell id="VGD7acbD25_1UuSdrELz-49" value="会话管理器" style="rounded=1;whiteSpace=wrap;html=1;fontSize=15;" vertex="1" parent="dNC3qKNQeRgzjOXp19lq-1">
          <mxGeometry x="530" y="426.38" width="40" height="80" as="geometry" />
        </mxCell>
        <mxCell id="VGD7acbD25_1UuSdrELz-50" value="心跳检测" style="rounded=1;whiteSpace=wrap;html=1;fontSize=15;" vertex="1" parent="dNC3qKNQeRgzjOXp19lq-1">
          <mxGeometry x="350" y="426.38" width="40" height="80" as="geometry" />
        </mxCell>
        <mxCell id="VGD7acbD25_1UuSdrELz-51" value="日志记录" style="rounded=1;whiteSpace=wrap;html=1;fontSize=15;" vertex="1" parent="dNC3qKNQeRgzjOXp19lq-1">
          <mxGeometry x="170" y="426.38" width="40" height="80" as="geometry" />
        </mxCell>
        <mxCell id="VGD7acbD25_1UuSdrELz-52" value="&lt;div style=&quot;text-align: justify&quot;&gt;&lt;/div&gt;" style="rounded=0;whiteSpace=wrap;html=1;shadow=0;glass=0;dashed=1;sketch=0;gradientColor=none;fillColor=#FFFFFF;" vertex="1" parent="dNC3qKNQeRgzjOXp19lq-1">
          <mxGeometry x="150" y="547.26" width="440" height="100" as="geometry" />
        </mxCell>
        <mxCell id="VGD7acbD25_1UuSdrELz-53" value="http协议解析" style="rounded=1;whiteSpace=wrap;html=1;fontSize=15;" vertex="1" parent="dNC3qKNQeRgzjOXp19lq-1">
          <mxGeometry x="230" y="557.26" width="40" height="80" as="geometry" />
        </mxCell>
        <mxCell id="VGD7acbD25_1UuSdrELz-54" value="http响应封装" style="rounded=1;whiteSpace=wrap;html=1;fontSize=15;" vertex="1" parent="dNC3qKNQeRgzjOXp19lq-1">
          <mxGeometry x="290" y="557.26" width="40" height="80" as="geometry" />
        </mxCell>
        <mxCell id="VGD7acbD25_1UuSdrELz-55" value="ws协议解析" style="rounded=1;whiteSpace=wrap;html=1;fontSize=15;" vertex="1" parent="dNC3qKNQeRgzjOXp19lq-1">
          <mxGeometry x="410" y="557.26" width="40" height="80" as="geometry" />
        </mxCell>
        <mxCell id="VGD7acbD25_1UuSdrELz-56" value="ws处理器" style="rounded=1;whiteSpace=wrap;html=1;fontSize=15;" vertex="1" parent="dNC3qKNQeRgzjOXp19lq-1">
          <mxGeometry x="470" y="557.26" width="40" height="80" as="geometry" />
        </mxCell>
        <mxCell id="VGD7acbD25_1UuSdrELz-57" value="会话管理器" style="rounded=1;whiteSpace=wrap;html=1;fontSize=15;" vertex="1" parent="dNC3qKNQeRgzjOXp19lq-1">
          <mxGeometry x="530" y="557.26" width="40" height="80" as="geometry" />
        </mxCell>
        <mxCell id="VGD7acbD25_1UuSdrELz-58" value="心跳检测" style="rounded=1;whiteSpace=wrap;html=1;fontSize=15;" vertex="1" parent="dNC3qKNQeRgzjOXp19lq-1">
          <mxGeometry x="350" y="557.26" width="40" height="80" as="geometry" />
        </mxCell>
        <mxCell id="VGD7acbD25_1UuSdrELz-59" value="日志记录" style="rounded=1;whiteSpace=wrap;html=1;fontSize=15;" vertex="1" parent="dNC3qKNQeRgzjOXp19lq-1">
          <mxGeometry x="170" y="557.26" width="40" height="80" as="geometry" />
        </mxCell>
        <mxCell id="VGD7acbD25_1UuSdrELz-12" value="Response" style="rounded=0;whiteSpace=wrap;html=1;shadow=0;glass=0;dashed=1;sketch=0;gradientColor=none;strokeColor=none;fillColor=none;" vertex="1" parent="dNC3qKNQeRgzjOXp19lq-1">
          <mxGeometry x="90" y="607.26" width="50" height="30" as="geometry" />
        </mxCell>
        <mxCell id="VGD7acbD25_1UuSdrELz-11" value="Request" style="rounded=0;whiteSpace=wrap;html=1;shadow=0;glass=0;dashed=1;sketch=0;gradientColor=none;strokeColor=none;fontSize=8;fillColor=none;" vertex="1" parent="dNC3qKNQeRgzjOXp19lq-1">
          <mxGeometry x="90" y="189.99" width="50" height="30" as="geometry" />
        </mxCell>
        <mxCell id="VGD7acbD25_1UuSdrELz-60" value="" style="endArrow=classic;startArrow=classic;html=1;fontSize=8;exitX=1.003;exitY=0.595;exitDx=0;exitDy=0;exitPerimeter=0;entryX=0;entryY=0.5;entryDx=0;entryDy=0;" edge="1" parent="dNC3qKNQeRgzjOXp19lq-1" source="VGD7acbD25_1UuSdrELz-32" target="VGD7acbD25_1UuSdrELz-20">
          <mxGeometry width="50" height="50" relative="1" as="geometry">
            <mxPoint x="540" y="130" as="sourcePoint" />
            <mxPoint x="590" y="80" as="targetPoint" />
          </mxGeometry>
        </mxCell>
        <mxCell id="VGD7acbD25_1UuSdrELz-61" value="" style="endArrow=classic;startArrow=classic;html=1;fontSize=8;exitX=1.003;exitY=0.595;exitDx=0;exitDy=0;exitPerimeter=0;entryX=0;entryY=0.5;entryDx=0;entryDy=0;" edge="1" parent="dNC3qKNQeRgzjOXp19lq-1">
          <mxGeometry width="50" height="50" relative="1" as="geometry">
            <mxPoint x="589.9999999999999" y="350.61375" as="sourcePoint" />
            <mxPoint x="620.68" y="349.3799999999999" as="targetPoint" />
          </mxGeometry>
        </mxCell>
        <mxCell id="VGD7acbD25_1UuSdrELz-62" value="" style="endArrow=classic;startArrow=classic;html=1;fontSize=8;exitX=1.003;exitY=0.595;exitDx=0;exitDy=0;exitPerimeter=0;entryX=0;entryY=0.5;entryDx=0;entryDy=0;" edge="1" parent="dNC3qKNQeRgzjOXp19lq-1">
          <mxGeometry width="50" height="50" relative="1" as="geometry">
            <mxPoint x="589.9999999999999" y="470.62375" as="sourcePoint" />
            <mxPoint x="620.68" y="469.3899999999999" as="targetPoint" />
          </mxGeometry>
        </mxCell>
        <mxCell id="VGD7acbD25_1UuSdrELz-63" value="" style="endArrow=classic;startArrow=classic;html=1;fontSize=8;exitX=1.003;exitY=0.595;exitDx=0;exitDy=0;exitPerimeter=0;entryX=0;entryY=0.5;entryDx=0;entryDy=0;" edge="1" parent="dNC3qKNQeRgzjOXp19lq-1">
          <mxGeometry width="50" height="50" relative="1" as="geometry">
            <mxPoint x="589.9999999999999" y="597.87375" as="sourcePoint" />
            <mxPoint x="620.68" y="596.6399999999999" as="targetPoint" />
          </mxGeometry>
        </mxCell>
        <mxCell id="VGD7acbD25_1UuSdrELz-64" value="&lt;font style=&quot;font-size: 15px&quot;&gt;proxy server&lt;/font&gt;" style="rounded=0;whiteSpace=wrap;html=1;shadow=0;glass=0;dashed=1;sketch=0;fontSize=8;fillColor=none;gradientColor=none;strokeColor=none;" vertex="1" parent="dNC3qKNQeRgzjOXp19lq-1">
          <mxGeometry x="330" y="129.99" width="120" height="60" as="geometry" />
        </mxCell>
      </root>
    </mxGraphModel>
  </diagram>
</mxfile>
